ffmpeg version 3.4.8-0ubuntu0.2 Copyright (c) 2000-2020 the FFmpeg developers
  built with gcc 7 (Ubuntu 7.5.0-3ubuntu1~18.04)
  configuration: --prefix=/usr --extra-version=0ubuntu0.2 --toolchain=hardened --libdir=/usr/lib/x86_64-linux-gnu --incdir=/usr/include/x86_64-linux-gnu --enable-gpl --disable-stripping --enable-avresample --enable-avisynth --enable-gnutls --enable-ladspa --enable-libass --enable-libbluray --enable-libbs2b --enable-libcaca --enable-libcdio --enable-libflite --enable-libfontconfig --enable-libfreetype --enable-libfribidi --enable-libgme --enable-libgsm --enable-libmp3lame --enable-libmysofa --enable-libopenjpeg --enable-libopenmpt --enable-libopus --enable-libpulse --enable-librubberband --enable-librsvg --enable-libshine --enable-libsnappy --enable-libsoxr --enable-libspeex --enable-libssh --enable-libtheora --enable-libtwolame --enable-libvorbis --enable-libvpx --enable-libwavpack --enable-libwebp --enable-libx265 --enable-libxml2 --enable-libxvid --enable-libzmq --enable-libzvbi --enable-omx --enable-openal --enable-opengl --enable-sdl2 --enable-libdc1394 --enable-libdrm --enable-libiec61883 --enable-chromaprint --enable-frei0r --enable-libopencv --enable-libx264 --enable-shared
  libavutil      55. 78.100 / 55. 78.100
  libavcodec     57.107.100 / 57.107.100
  libavformat    57. 83.100 / 57. 83.100
  libavdevice    57. 10.100 / 57. 10.100
  libavfilter     6.107.100 /  6.107.100
  libavresample   3.  7.  0 /  3.  7.  0
  libswscale      4.  8.100 /  4.  8.100
  libswresample   2.  9.100 /  2.  9.100
  libpostproc    54.  7.100 / 54.  7.100
[rawvideo @ 0x56363b663a20] Estimating duration from bitrate, this may be inaccurate
Input #0, rawvideo, from '../../SVC-Encoder-20220109T061506Z-001/SVC-Encoder/Dataset/RollerCoaster/ERP_8x8/tile_yuv/Tile_49_480x240.yuv':
  Duration: 00:00:10.00, start: 0.000000, bitrate: 41472 kb/s
    Stream #0:0: Video: rawvideo (I420 / 0x30323449), yuv420p, 480x240, 41472 kb/s, 30 tbr, 30 tbn, 30 tbc
Stream mapping:
  Stream #0:0 -> #0:0 (rawvideo (native) -> h264 (libx264))
Press [q] to stop, [?] for help
[libx264 @ 0x56363b670c60] using cpu capabilities: MMX2 SSE2Fast LZCNT SSSE3 SSE4.2 AVX
[libx264 @ 0x56363b670c60] profile High, level 2.1
Output #0, rawvideo, to 'RollerCoaster_Tile_49_480x240_x264_QP_24.h264':
  Metadata:
    encoder         : Lavf57.83.100
    Stream #0:0: Video: h264 (libx264), yuv420p, 480x240, q=-1--1, 30 fps, 30 tbn, 30 tbc
    Metadata:
      encoder         : Lavc57.107.100 libx264
    Side data:
      cpb: bitrate max/min/avg: 0/0/0 buffer size: 0 vbv_delay: -1
frame=  172 fps=0.0 q=30.0 PSNR=Y:nan U:nan V:nan *:nan size=      68kB time=00:00:04.30 bitrate= 129.1kbits/s speed=8.55x    frame=  300 fps=0.0 q=30.0 LPSNR=Y:inf U:inf V:inf *:inf size=     145kB time=00:00:09.93 bitrate= 119.9kbits/s speed=10.5x    
video:145kB audio:0kB subtitle:0kB other streams:0kB global headers:0kB muxing overhead: 0.000000%
[libx264 @ 0x56363b670c60] frame I:2     Avg QP:21.28  size: 13300  PSNR Mean Y:47.61 U:50.52 V:48.65 Avg:48.15 Global:48.12
[libx264 @ 0x56363b670c60] frame P:76    Avg QP:22.58  size:  1097  PSNR Mean Y:45.28 U:49.58 V:48.05 Avg:46.16 Global:46.11
[libx264 @ 0x56363b670c60] frame B:222   Avg QP:29.44  size:   175  PSNR Mean Y:44.96 U:49.40 V:47.77 Avg:45.85 Global:45.81
[libx264 @ 0x56363b670c60] consecutive B-frames:  1.0%  0.7%  1.0% 97.3%
[libx264 @ 0x56363b670c60] mb I  I16..4: 22.0% 54.7% 23.3%
[libx264 @ 0x56363b670c60] mb P  I16..4:  1.6%  0.2%  0.0%  P16..4: 41.9% 13.6%  5.2%  0.0%  0.0%    skip:37.5%
[libx264 @ 0x56363b670c60] mb B  I16..4:  0.0%  0.0%  0.0%  B16..8: 34.1%  0.9%  0.0%  direct: 0.0%  skip:65.0%  L0:43.1% L1:56.4% BI: 0.5%
[libx264 @ 0x56363b670c60] 8x8 transform intra:37.1% inter:75.1%
[libx264 @ 0x56363b670c60] coded y,uvDC,uvAC intra: 42.3% 58.7% 33.6% inter: 4.4% 6.1% 0.1%
[libx264 @ 0x56363b670c60] i16 v,h,dc,p: 38% 37% 20%  5%
[libx264 @ 0x56363b670c60] i8 v,h,dc,ddl,ddr,vr,hd,vl,hu:  8% 25% 21%  6%  5%  3% 14%  6% 12%
[libx264 @ 0x56363b670c60] i4 v,h,dc,ddl,ddr,vr,hd,vl,hu:  7% 35%  9%  6%  6%  3% 19%  5% 10%
[libx264 @ 0x56363b670c60] i8c dc,h,v,p: 47% 37%  9%  8%
[libx264 @ 0x56363b670c60] Weighted P-Frames: Y:1.3% UV:0.0%
[libx264 @ 0x56363b670c60] ref P L0: 59.5% 15.6% 18.9%  5.9%  0.0%
[libx264 @ 0x56363b670c60] ref B L0: 76.1% 20.9%  3.0%
[libx264 @ 0x56363b670c60] ref B L1: 82.2% 17.8%
[libx264 @ 0x56363b670c60] PSNR Mean Y:45.056 U:49.452 V:47.850 Avg:45.942 Global:45.896 kb/s:119.13
